<?xml version="1.0" encoding="UTF-8"?>
<!--Generator: Apple Native CoreSVG 175.5-->
<!DOCTYPE svg
PUBLIC "-//W3C//DTD SVG 1.1//EN"
       "http://www.w3.org/Graphics/SVG/1.1/DTD/svg11.dtd">
<svg version="1.1" xmlns="http://www.w3.org/2000/svg" xmlns:xlink="http://www.w3.org/1999/xlink" width="31.2305" height="20.6934">
 <g>
  <rect height="20.6934" opacity="0" width="31.2305" x="0" y="0"/>
  <path d="M12.207 19.1016C11.377 19.1016 10.918 18.6621 10.918 17.8809L10.918 2.79297C10.918 2.01172 11.377 1.57227 12.207 1.57227L13.457 1.57227C13.6133 1.57227 13.6914 1.65039 13.6914 1.79688L13.6914 2.02148C13.6914 2.43164 13.9648 2.70508 14.3652 2.70508L16.8945 2.70508C17.2949 2.70508 17.5586 2.43164 17.5586 2.02148L17.5586 1.79688C17.5586 1.65039 17.6367 1.57227 17.793 1.57227L19.043 1.57227C19.8633 1.57227 20.3223 2.01172 20.3223 2.79297L20.3223 17.8809C20.3223 18.6621 19.8633 19.1016 19.043 19.1016Z" fill="#ffffff" fill-opacity="0.25"/>
  <path d="M12.002 20.6738L19.2383 20.6738C20.8301 20.6738 21.8945 19.6582 21.8945 18.1348L21.8945 2.53906C21.8945 1.01562 20.8301 0 19.2383 0L12.002 0C10.4102 0 9.3457 1.01562 9.3457 2.53906L9.3457 18.1348C9.3457 19.6582 10.4102 20.6738 12.002 20.6738ZM12.207 19.1016C11.377 19.1016 10.918 18.6621 10.918 17.8809L10.918 2.79297C10.918 2.01172 11.377 1.57227 12.207 1.57227L13.457 1.57227C13.6133 1.57227 13.6914 1.65039 13.6914 1.79688L13.6914 2.02148C13.6914 2.43164 13.9648 2.70508 14.3652 2.70508L16.8945 2.70508C17.2949 2.70508 17.5586 2.43164 17.5586 2.02148L17.5586 1.79688C17.5586 1.65039 17.6367 1.57227 17.793 1.57227L19.043 1.57227C19.8633 1.57227 20.3223 2.01172 20.3223 2.79297L20.3223 17.8809C20.3223 18.6621 19.8633 19.1016 19.043 19.1016ZM13.5547 18.3887L17.7051 18.3887C17.9688 18.3887 18.1543 18.2031 18.1543 17.9297C18.1543 17.6562 17.9688 17.4805 17.7051 17.4805L13.5547 17.4805C13.291 17.4805 13.0957 17.6562 13.0957 17.9297C13.0957 18.2031 13.291 18.3887 13.5547 18.3887Z" fill="#ffffff"/>
  <path d="M6.50391 14.2383C6.81641 13.8867 6.68945 13.4473 6.37695 13.0273C5.79102 12.2949 5.50781 11.3574 5.50781 10.3418C5.50781 9.32617 5.79102 8.37891 6.37695 7.65625C6.68945 7.23633 6.81641 6.79688 6.50391 6.44531C6.18164 6.07422 5.5957 6.07422 5.25391 6.51367C4.4043 7.56836 3.91602 8.90625 3.91602 10.3418C3.91602 11.7773 4.4043 13.1152 5.25391 14.1699C5.5957 14.6094 6.18164 14.5996 6.50391 14.2383ZM24.7266 14.2383C25.0488 14.5996 25.6348 14.6094 25.9766 14.1699C26.8262 13.1152 27.3242 11.7773 27.3242 10.3418C27.3242 8.90625 26.8262 7.56836 25.9766 6.51367C25.6348 6.07422 25.0488 6.07422 24.7266 6.44531C24.4141 6.79688 24.5508 7.23633 24.8535 7.65625C25.4395 8.37891 25.7324 9.32617 25.7324 10.3418C25.7324 11.3574 25.4395 12.2949 24.8535 13.0273C24.5508 13.4473 24.4141 13.8867 24.7266 14.2383Z" fill="#ffffff" fill-opacity="0.5"/>
  <path d="M3.76953 17.0215C4.08203 16.6699 3.98438 16.2109 3.63281 15.8105C2.32422 14.3555 1.5918 12.4414 1.5918 10.3418C1.5918 8.24219 2.32422 6.32812 3.63281 4.87305C3.98438 4.47266 4.08203 4.01367 3.76953 3.66211C3.45703 3.29102 2.91016 3.30078 2.53906 3.71094C0.917969 5.46875 0 7.8125 0 10.3418C0 12.8711 0.917969 15.2051 2.53906 16.9727C2.91016 17.3828 3.45703 17.3828 3.76953 17.0215ZM27.4609 17.0215C27.7734 17.3828 28.3203 17.3828 28.7012 16.9727C30.3223 15.2051 31.2305 12.8711 31.2305 10.3418C31.2305 7.8125 30.3223 5.46875 28.7012 3.71094C28.3203 3.30078 27.7734 3.29102 27.4609 3.66211C27.1484 4.01367 27.2461 4.47266 27.5977 4.87305C28.9062 6.32812 29.6387 8.24219 29.6387 10.3418C29.6387 12.4414 28.9062 14.3555 27.5977 15.8105C27.2461 16.2109 27.1484 16.6699 27.4609 17.0215Z" fill="#ffffff" fill-opacity="0.5"/>
 </g>
</svg>
